<?xml version="1.0" encoding="utf-8"?>
<!-- Generator: Adobe Illustrator 25.0.1, SVG Export Plug-In . SVG Version: 6.00 Build 0)  -->
<svg version="1.1" id="Ebene_1" xmlns="http://www.w3.org/2000/svg" xmlns:xlink="http://www.w3.org/1999/xlink" x="0px" y="0px"
	 viewBox="0 0 841.9 595.3" style="enable-background:new 0 0 841.9 595.3;" xml:space="preserve">
<style type="text/css">
	.st0{fill:#FFFFFF;}
</style>
<g>
	<path class="st0" d="M583.7,541.5c-170.6,0-341.3,0-512,0c0-170.6,0-341.2,0-512c170.6,0,341.3,0,512,0
		C583.7,200.1,583.7,370.8,583.7,541.5z M106,297.5c0.5,123.2,100.2,222.4,223.1,222c122.1-0.4,221.7-100.5,221.2-222.3
		c-0.5-123.5-100-222.3-223.6-221.9C205,75.7,105.5,175.9,106,297.5z"/>
	<path d="M106,297.5c-0.5-121.7,99-221.8,220.7-222.2c123.5-0.4,223.1,98.4,223.6,221.9c0.5,121.8-99.1,221.9-221.2,222.3
		C206.1,519.9,106.5,420.7,106,297.5z M181.5,385.4c0.8,0.2,1.2,0.4,1.5,0.4c33.4,0,66.9,0.4,100.3-0.2c13.8-0.3,26.8-5,37.3-14.6
		c13.6-12.4,16.5-28.7,15.5-46c-0.5-9.3-2.7-18.4-8.1-26.3c-5.5-8.1-13.5-12.1-24.3-13.1c2.7-1,4.3-1.6,5.8-2.2
		c7.7-2.9,13.4-8,16.8-15.4c6.7-14.4,5.2-43.6-15-57.4c-9.3-6.4-19.8-9.4-31-9.4c-31.6-0.2-63.2-0.1-94.8-0.1
		c-1.3,0-2.5,0.2-3.9,0.4C181.5,262.9,181.5,324,181.5,385.4z M446.2,341c-5.2,16.5-19.7,23.2-40,18.8
		c-14.9-3.3-24.5-16.4-22.6-31.6c31.6,0,63.3,0,96.5,0c-0.8-10-0.7-19.5-2.4-28.7c-3.6-20.5-13.1-37.4-33.4-45.7
		c-6.9-2.8-14.6-4.7-22.1-5.2c-27.4-2.1-51.5,4.7-66.6,29.8c-13.6,22.6-15.8,46.9-6.7,71.8c6.4,17.4,18.7,29.1,36.2,35.2
		c13.1,4.5,26.7,5.4,40.4,4.2c13.5-1.2,26.5-4.7,37.3-13.7c10.8-9,15-20.9,15-34.8C467,341,456.8,341,446.2,341z M450.8,234.1
		c0-7.6,0-14.6,0-21.8c-25.4,0-50.5,0-75.4,0c0,7.5,0,14.6,0,21.8C400.6,234.1,425.5,234.1,450.8,234.1z"/>
	<path class="st0" d="M181.5,385.4c0-61.4,0-122.5,0-184c1.3-0.1,2.6-0.4,3.9-0.4c31.6,0,63.2-0.1,94.8,0.1c11.2,0.1,21.6,3,31,9.4
		c20.2,13.8,21.7,43,15,57.4c-3.5,7.5-9.1,12.5-16.8,15.4c-1.5,0.6-3,1.2-5.8,2.2c10.9,1,18.8,5,24.3,13.1c5.4,7.9,7.6,17,8.1,26.3
		c1,17.3-1.9,33.6-15.5,46c-10.5,9.6-23.5,14.4-37.3,14.6c-33.4,0.6-66.8,0.2-100.3,0.2C182.6,385.8,182.3,385.6,181.5,385.4z
		 M223.6,352.7c19.3,0,38.2,0.4,57-0.2c7.2-0.2,12.8-5.1,14.6-12.4c1.3-5.2,2-10.9,1.5-16.1c-1.3-12.8-8.9-21-23.8-20.4
		c-14.6,0.6-29.2,0.1-43.8,0.1c-1.8,0-3.5,0.2-5.5,0.2C223.6,320.4,223.6,336.4,223.6,352.7z M223.4,274.9c18.5,0,36.3,0.1,54.1-0.1
		c5.8-0.1,10.2-3.5,11.2-8.9c1.2-6.7,1.8-13.9,0.9-20.6c-1-8-6.6-11.6-14.9-11.6c-10.6,0-21.3,0-31.9,0c-6.3,0-12.5,0-19,0
		c-0.1,1.5-0.3,2.5-0.3,3.4C223.4,249.5,223.4,262,223.4,274.9z"/>
	<path class="st0" d="M446.2,341c10.5,0,20.8,0,31.7,0c0,14-4.3,25.8-15,34.8c-10.8,9-23.7,12.5-37.3,13.7
		c-13.6,1.2-27.3,0.4-40.4-4.2c-17.5-6.1-29.8-17.8-36.2-35.2c-9.2-24.9-6.9-49.2,6.7-71.8c15.1-25,39.2-31.9,66.6-29.8
		c7.5,0.6,15.2,2.4,22.1,5.2c20.2,8.3,29.7,25.2,33.4,45.7c1.6,9.2,1.6,18.7,2.4,28.7c-33.2,0-64.9,0-96.5,0
		c-1.9,15.2,7.7,28.3,22.6,31.6C426.5,364.2,441,357.5,446.2,341z M443.5,303.5c0.7-16.1-10.9-28-26.8-28.6
		c-18.3-0.7-32,12.8-33.3,28.6C403.5,303.5,423.5,303.5,443.5,303.5z"/>
	<path class="st0" d="M450.8,234.1c-25.3,0-50.2,0-75.4,0c0-7.2,0-14.3,0-21.8c24.9,0,50,0,75.4,0
		C450.8,219.5,450.8,226.5,450.8,234.1z"/>
	<path d="M223.6,352.7c0-16.3,0-32.3,0-48.8c1.9-0.1,3.7-0.2,5.5-0.2c14.6,0,29.2,0.4,43.8-0.1c14.8-0.6,22.5,7.6,23.8,20.4
		c0.5,5.3-0.2,10.9-1.5,16.1c-1.8,7.3-7.4,12.2-14.6,12.4C261.8,353.1,242.9,352.7,223.6,352.7z"/>
	<path d="M223.4,274.9c0-12.9,0-25.4,0-37.8c0-1,0.2-1.9,0.3-3.4c6.5,0,12.8,0,19,0c10.6,0,21.3,0,31.9,0c8.3,0,13.9,3.6,14.9,11.6
		c0.9,6.8,0.3,13.9-0.9,20.6c-1,5.4-5.4,8.9-11.2,8.9C259.7,275,241.9,274.9,223.4,274.9z"/>
	<path d="M443.5,303.5c-20,0-40,0-60.1,0c1.2-15.9,15-29.4,33.3-28.6C432.6,275.5,444.2,287.5,443.5,303.5z"/>
</g>
</svg>
