<?xml version="1.0" encoding="utf-8"?>
<!-- Generator: Adobe Illustrator 25.0.1, SVG Export Plug-In . SVG Version: 6.00 Build 0)  -->
<svg version="1.1" id="Ebene_1" xmlns="http://www.w3.org/2000/svg" xmlns:xlink="http://www.w3.org/1999/xlink" x="0px" y="0px"
	 viewBox="0 0 144.7 118.5" style="enable-background:new 0 0 144.7 118.5;" xml:space="preserve">
<g>
	<path d="M14.7,59.7C14.5,27.4,40.9,0.9,73.1,0.8c32.7-0.1,59.1,26.1,59.2,58.8c0.1,32.3-26.3,58.8-58.6,58.9
		C41.2,118.6,14.8,92.3,14.7,59.7z M34.7,83c0.2,0.1,0.3,0.1,0.4,0.1c8.8,0,17.7,0.1,26.6-0.1c3.7-0.1,7.1-1.3,9.9-3.9
		c3.6-3.3,4.4-7.6,4.1-12.2c-0.1-2.5-0.7-4.9-2.1-7c-1.5-2.1-3.6-3.2-6.4-3.5c0.7-0.3,1.1-0.4,1.5-0.6c2-0.8,3.6-2.1,4.5-4.1
		c1.8-3.8,1.4-11.6-4-15.2C66.7,34.8,64,34,61,34c-8.4-0.1-16.7,0-25.1,0c-0.3,0-0.7,0.1-1,0.1C34.7,50.5,34.7,66.7,34.7,83z
		 M104.8,71.2c-1.4,4.4-5.2,6.1-10.6,5c-3.9-0.9-6.5-4.3-6-8.4c8.4,0,16.8,0,25.6,0c-0.2-2.6-0.2-5.2-0.6-7.6
		c-1-5.4-3.5-9.9-8.8-12.1c-1.8-0.7-3.9-1.2-5.9-1.4c-7.3-0.6-13.6,1.2-17.6,7.9c-3.6,6-4.2,12.4-1.8,19c1.7,4.6,5,7.7,9.6,9.3
		c3.5,1.2,7.1,1.4,10.7,1.1s7-1.2,9.9-3.6s4-5.5,4-9.2C110.3,71.2,107.6,71.2,104.8,71.2z M106,42.9c0-2,0-3.9,0-5.8
		c-6.7,0-13.4,0-20,0c0,2,0,3.9,0,5.8C92.7,42.9,99.3,42.9,106,42.9z"/>
	<path d="M45.8,74.3c0-4.3,0-8.6,0-12.9c0.5,0,1-0.1,1.5-0.1c3.9,0,7.7,0.1,11.6,0c3.9-0.2,6,2,6.3,5.4c0.1,1.4-0.1,2.9-0.4,4.3
		c-0.5,1.9-2,3.2-3.9,3.3C55.9,74.4,50.9,74.3,45.8,74.3z"/>
	<path d="M45.8,53.7c0-3.4,0-6.7,0-10c0-0.3,0.1-0.5,0.1-0.9c1.7,0,3.4,0,5,0c2.8,0,5.6,0,8.5,0c2.2,0,3.7,1,3.9,3.1
		c0.2,1.8,0.1,3.7-0.2,5.5c-0.3,1.4-1.4,2.4-3,2.4C55.4,53.7,50.7,53.7,45.8,53.7z"/>
	<path d="M104.1,61.3c-5.3,0-10.6,0-15.9,0c0.3-4.2,4-7.8,8.8-7.6C101.2,53.9,104.3,57,104.1,61.3z"/>
</g>
</svg>
