<?xml version="1.0" encoding="utf-8"?>
<!-- Generator: Adobe Illustrator 25.0.1, SVG Export Plug-In . SVG Version: 6.00 Build 0)  -->
<svg version="1.1" id="Ebene_1" xmlns="http://www.w3.org/2000/svg" xmlns:xlink="http://www.w3.org/1999/xlink" x="0px" y="0px"
	 viewBox="0 0 144.7 118.5" style="enable-background:new 0 0 144.7 118.5;" xml:space="preserve">
<style type="text/css">
	.st0{fill:#FFFFFF;}
	.st1{fill:#FFFFFF;stroke:#1D1D1B;stroke-width:4;stroke-miterlimit:10;}
</style>
<path class="st0" d="M72.5,0C55.1,0,37.6,0,20.2,0C10.7,0,2.9,5.8,0.7,14.6c-0.7,2.9-0.8,6-0.8,9c-0.1,24.6-0.1,49.1,0,73.7
	c0,12.4,8.2,21.2,19.9,21.2c35,0.1,69.9,0.1,104.9,0c8.4,0,15.8-5,18.5-12.6c1-3,1.4-6.4,1.4-9.6c0.1-24.9,0-49.8,0.1-74.7
	c0-13-8.3-21.6-21.4-21.6C106.4,0,89.5,0,72.5,0z"/>
<path class="st1" d="M72.5,0c17,0,33.9,0,50.9,0c13,0,21.4,8.6,21.4,21.6c-0.1,24.9,0,49.8-0.1,74.7c0,3.2-0.4,6.6-1.4,9.6
	c-2.7,7.6-10.1,12.6-18.5,12.6c-35,0-69.9,0.1-104.9,0C8.2,118.5,0,109.6,0,97.3c-0.1-24.6,0-49.1,0-73.7c0-3,0.1-6.1,0.8-9
	C3,5.8,10.8,0,20.3,0C37.7,0,55.1,0,72.5,0z M131.6,32.4c-1.6,1.1-2.6,1.8-3.5,2.4c-16.9,11.8-33.7,23.6-50.6,35.4
	c-4.3,3-6.2,3-10.4,0c-12.2-8.5-24.3-17-36.5-25.5c-5.7-4-11.4-8-17.6-12.3c0,1.7,0,2.7,0,3.7c0,20.2,0,40.5,0,60.7
	c0,6.2,2.2,8.5,8.4,8.5c33.9,0,67.9,0,101.8,0c6.2,0,8.4-2.2,8.4-8.4c0-20.4,0-40.7,0-61.1C131.6,34.9,131.6,34,131.6,32.4z
	 M130.7,16.9c0.1-0.4,0.1-0.8,0.2-1.2c-2.1-0.8-4.2-2.3-6.3-2.3c-34.9-0.1-69.7-0.1-104.6,0c-2.1,0-4.2,1.5-7,2.6
	c1.3,1.2,1.7,1.6,2.2,1.9C33.6,30.8,52,43.6,70.3,56.6c2,1.4,3.1,0.6,4.6-0.4c11.9-8.3,23.7-16.6,35.6-24.9
	C117.2,26.4,124,21.7,130.7,16.9z"/>
<path d="M131.6,32.4c0,1.6,0,2.5,0,3.4c0,20.4,0,40.7,0,61.1c0,6.2-2.2,8.4-8.4,8.4c-33.9,0-67.9,0-101.8,0c-6.2,0-8.4-2.2-8.4-8.5
	c0-20.2,0-40.5,0-60.7c0-1,0-2,0-3.7c6.2,4.3,11.9,8.3,17.6,12.3c12.2,8.5,24.3,17,36.5,25.5c4.3,3,6.1,3,10.4,0
	c16.9-11.8,33.7-23.6,50.6-35.4C129.1,34.2,130,33.5,131.6,32.4z"/>
<path d="M130.7,16.9c-6.8,4.8-13.5,9.5-20.3,14.2C98.5,39.4,86.7,47.7,74.8,56c-1.5,1-2.6,1.8-4.6,0.4c-18.3-13-36.7-25.8-55.1-38.7
	c-0.5-0.3-0.8-0.7-2.2-1.9c2.8-1.1,4.9-2.6,7-2.6c34.9-0.1,69.7-0.1,104.6,0c2.1,0,4.2,1.5,6.3,2.3
	C130.9,16.1,130.8,16.5,130.7,16.9z"/>
</svg>
