<?xml version="1.0" encoding="utf-8"?>
<!-- Generator: Adobe Illustrator 25.0.1, SVG Export Plug-In . SVG Version: 6.00 Build 0)  -->
<svg version="1.1" id="Ebene_1" xmlns="http://www.w3.org/2000/svg" xmlns:xlink="http://www.w3.org/1999/xlink" x="0px" y="0px"
	 viewBox="0 0 144.7 118.5" style="enable-background:new 0 0 144.7 118.5;" xml:space="preserve">
<path d="M4.5,19.3c5.9,4,11.6,8.2,17.4,12.3C37.4,42.5,53.3,53.8,69,65.1c1.4,0.9,2.6,1.3,3.6,1.3c1.8,0,3.2-0.9,4.2-1.7l0.1-0.1
	c6.9-4.9,13.8-9.8,20.7-14.7c7-5,13.9-9.8,21-14.8c4.8-3.6,9.7-7.1,14.5-10.4c3-2.1,6.1-4.4,9.1-6.5l0.7-0.5l0.2-0.8
	c0.1-0.4,0.1-0.7,0.1-0.9c0-0.1-144.6-1.4-144.6-1.4l3.4,3.1C3.3,18.3,3.8,18.8,4.5,19.3z"/>
<path d="M137.1,28.4c-9.9,7-20,14-30,21s-20,14-30,21c-4.3,3-5.4,3-9.6,0C60.2,65.2,53,60.1,45.9,55.1c-7.2-5-14.3-10.1-21.5-15
	L24.1,40c-6.7-4.7-13.4-9.5-20.7-14.4l-3.7-2.6v80.7c0,8.8,3.7,12.4,12.3,12.4h120.5c8.6,0,12.3-3.7,12.3-12.3V22.9l-5.2,3.7
	C138.6,27.3,137.8,27.8,137.1,28.4z"/>
</svg>
