<?xml version="1.0" encoding="utf-8"?>
<!-- Generator: Adobe Illustrator 25.0.1, SVG Export Plug-In . SVG Version: 6.00 Build 0)  -->
<svg version="1.1" id="Ebene_1" xmlns="http://www.w3.org/2000/svg" xmlns:xlink="http://www.w3.org/1999/xlink" x="0px" y="0px"
	 viewBox="0 0 97.9 64.2" style="enable-background:new 0 0 97.9 64.2;" xml:space="preserve">
<path d="M54,0c2.1,0.2,4.2,0.4,6.3,0.6c8.1,0.8,16.1,1.9,23.5,5.5c4.1,2,7.9,4.6,10.8,8.2c0.9,1.1,1.6,2.4,2.3,3.7
	c1.5,3.1,0.5,5.9-1.5,8.5c-1.3,1.6-3.2,2-5.2,1.3c-5.5-1.9-11.1-3.8-16.7-5.7c-2.7-0.9-3.2-3-1.4-5.2c0.7-0.9,1.4-1.7,2-2.7
	c0.7-1.3,0.2-2-1.2-2.1c-0.4,0-0.7,0-1.1,0c-15.2,0-30.5,0-45.7,0c-0.3,0-0.6,0-0.9,0c-1.8,0.1-2.2,0.9-1.3,2.3
	c0.6,0.9,1.3,1.8,2,2.7c1.7,2,1.2,4-1.3,4.9c-5.8,2-11.6,4-17.4,5.9c-1.8,0.6-3.3,0.1-4.4-1.2c-2.1-2.4-3.2-5.1-2-8.4
	c1.4-3.7,4.2-6.2,7.3-8.6c6.1-4.7,13.2-6.9,20.6-8c4.8-0.7,9.7-1.1,14.5-1.6c0.3,0,0.7-0.2,1-0.2C47.5,0,50.7,0,54,0z"/>
<path d="M85.4,63.9c-24.2,0-48.5,0-72.8,0c0-0.2-0.1-0.5-0.1-0.7c0-7.6-0.2-15.1,0.1-22.7c0.2-6.2,3.2-10.9,9-13.5
	c1-0.5,2.2-0.7,3.3-1.1c0.7-0.2,1.4-0.4,2-0.6c5.2-1.8,5.7-2.4,5.7-7.9c0-0.9,0-1.9,0-2.9c2.1,0,4.1,0,6.2,0c0,1,0.1,2,0.1,3.1
	c6.6,0,13.2,0,20,0c0-0.9,0-1.9,0-3.1c2.1,0,4,0,6.2,0c0,1.8,0.1,3.6,0,5.4s0.6,3.1,2.2,3.8c2.1,0.9,4.2,1.9,6.4,2.4
	c6.4,1.7,11.1,6.6,11.4,13.2c0.4,8,0.2,16.1,0.3,24.2C85.6,63.6,85.5,63.7,85.4,63.9z M65.9,41.1c0-9.7-7.4-17.1-17.1-17.1
	s-17.1,7.5-17.1,17.1s7.5,17.1,17,17.1C58.4,58.2,65.9,50.8,65.9,41.1z"/>
<path d="M48.7,31.4c5.5,0,9.8,4.3,9.7,9.7c-0.1,5.3-4.5,9.7-9.7,9.6c-5.3,0-9.7-4.4-9.6-9.7C39.1,35.7,43.4,31.4,48.7,31.4z"/>
<path d="M59.6,30.1c0,1.4-1.1,2.4-2.4,2.5c-1.3,0-2.5-1.2-2.5-2.5c0-1.4,1.1-2.4,2.6-2.4C58.6,27.7,59.6,28.7,59.6,30.1z"/>
<path d="M38.7,45.1c0,1.4-0.9,2.4-2.3,2.4c-1.5,0-2.6-1.1-2.6-2.4c0-1.4,1.2-2.5,2.5-2.5C37.8,42.7,38.7,43.7,38.7,45.1z"/>
<path d="M43.6,30c0,1.3-1,2.5-2.3,2.5c-1.2,0.1-2.5-1.1-2.5-2.4c-0.1-1.4,1.1-2.5,2.5-2.5S43.6,28.6,43.6,30z"/>
<path d="M51.6,27.4c0,1.4-0.9,2.4-2.3,2.5c-1.3,0-2.5-1-2.5-2.3c-0.1-1.3,1.1-2.6,2.4-2.6C50.5,25,51.5,26,51.6,27.4z"/>
<path d="M38.7,36.7c0,1.4-1.1,2.5-2.5,2.5c-1.3,0-2.4-1.1-2.4-2.5c0-1.3,1.1-2.4,2.5-2.4C37.7,34.4,38.7,35.4,38.7,36.7z"/>
<path d="M41.3,54.2c-1.5,0-2.5-1-2.5-2.4c0-1.3,1.2-2.5,2.5-2.5s2.4,1.1,2.4,2.4C43.7,53.2,42.7,54.2,41.3,54.2z"/>
<path d="M57,54.2c-1.3,0-2.4-1.2-2.3-2.5c0-1.3,1.2-2.4,2.5-2.4c1.4,0,2.5,1.2,2.4,2.6C59.5,53.4,58.4,54.3,57,54.2z"/>
<path d="M49.2,56.9c-1.3,0-2.4-1.2-2.5-2.4c0-1.4,1.2-2.5,2.5-2.5s2.3,1.1,2.3,2.5C51.6,55.9,50.5,56.9,49.2,56.9z"/>
<path d="M64.4,36.9c-0.1,1.3-1.2,2.4-2.5,2.3c-1.3-0.1-2.5-1.4-2.3-2.7c0.1-1.3,1.3-2.3,2.6-2.2C63.5,34.5,64.5,35.6,64.4,36.9z"/>
<path d="M64.4,45.2c0,1.3-1.2,2.4-2.5,2.3c-1.3-0.1-2.4-1.2-2.4-2.4c0-1.3,1.2-2.4,2.5-2.4C63.4,42.7,64.5,43.8,64.4,45.2z"/>
</svg>
